<?xml version="1.0" encoding="iso-8859-1"?>
<!-- Generator: Adobe Illustrator 16.0.0, SVG Export Plug-In . SVG Version: 6.00 Build 0)  -->
<!DOCTYPE svg PUBLIC "-//W3C//DTD SVG 1.1//EN" "http://www.w3.org/Graphics/SVG/1.1/DTD/svg11.dtd">
<svg version="1.1" id="Capa_1" xmlns="http://www.w3.org/2000/svg" xmlns:xlink="http://www.w3.org/1999/xlink" x="0px" y="0px"
	 width="343.287px" height="343.287px" viewBox="0 0 343.287 343.287" style="enable-background:new 0 0 343.287 343.287;"
	 xml:space="preserve">
<g>
	<g>
		<g id="Layer_5_93_">
			<path d="M293.016,50.273C260.596,17.853,217.493,0,171.645,0S82.694,17.854,50.274,50.273C17.855,82.692,0,125.795,0,171.644
				s17.854,88.952,50.273,121.372c32.42,32.42,75.523,50.271,121.371,50.271s88.952-17.854,121.372-50.271
				c32.418-32.42,50.271-75.521,50.271-121.372S325.436,82.692,293.016,50.273z M64.504,278.785
				c-28.619-28.618-44.38-66.668-44.38-107.141c0-38.024,13.913-73.908,39.329-101.843l214.033,214.034
				c-27.935,25.416-63.818,39.329-101.842,39.329C131.172,323.166,93.123,307.404,64.504,278.785z" fill="#fff" />
		</g>
	</g>
</g>
<g>
</g>
<g>
</g>
<g>
</g>
<g>
</g>
<g>
</g>
<g>
</g>
<g>
</g>
<g>
</g>
<g>
</g>
<g>
</g>
<g>
</g>
<g>
</g>
<g>
</g>
<g>
</g>
<g>
</g>
</svg>
