<svg xmlns="http://www.w3.org/2000/svg" viewBox="0 0 76.977 76.977" style="enable-background:new 0 0 76.977 76.977" xml:space="preserve"><g fill="#000"><path d="M38.489 76.977c-15.54 0-28.183-12.643-28.183-28.182 0-14.53 23.185-44.307 25.828-47.654a3 3 0 0 1 4.708 0C43.486 4.489 66.67 34.265 66.67 48.795c.001 15.539-12.641 28.182-28.181 28.182zm0-69.06c-7.847 10.409-22.183 31.389-22.183 40.878 0 12.231 9.951 22.182 22.183 22.182s22.183-9.95 22.183-22.182c-.001-9.489-14.337-30.469-22.183-40.878z"/><path d="M38.489 64.981a3 3 0 1 1 0-6c5.616 0 10.186-4.567 10.186-10.183a3 3 0 1 1 6 0c-.001 8.923-7.262 16.183-16.186 16.183z"/></g></svg>