<svg xmlns="http://www.w3.org/2000/svg" viewBox="0 0 512.013 512.013" style="enable-background:new 0 0 512.013 512.013" xml:space="preserve"><path d="M343.501 2.345a25.616 25.616 0 0 0-27.358 3.823L144.128 153.606H25.6c-14.14 0-25.6 11.46-25.6 25.6v153.6c0 14.14 11.46 25.6 25.6 25.6h118.528l172.015 147.439a25.599 25.599 0 0 0 16.666 6.161c3.627 0 7.27-.768 10.692-2.338a25.607 25.607 0 0 0 14.899-23.262v-460.8c0-10.001-5.82-19.08-14.899-23.261zM332.8 486.406l-179.2-153.6h-128v-153.6h128l179.2-153.6v460.8zM508.262 298.153l-42.163-42.146 42.146-42.146c5-5.001 5-13.099 0-18.099-5.001-5.001-13.099-5.001-18.099 0L448 237.907l-42.146-42.146c-5-5-13.099-5-18.099 0-5 5.001-5 13.099 0 18.099l42.146 42.146-42.146 42.146c-5 5.001-5 13.099 0 18.099a12.76 12.76 0 0 0 9.054 3.746 12.76 12.76 0 0 0 9.054-3.746l42.146-42.146 42.146 42.146a12.76 12.76 0 0 0 9.054 3.746 12.76 12.76 0 0 0 9.054-3.746c5-5 5-13.098-.001-18.098z" fill="#000"/></svg>