<svg xmlns="http://www.w3.org/2000/svg" viewBox="0 0 335 335" style="enable-background:new 0 0 335 335" xml:space="preserve"><path d="M242.188 117.236V28.219L116.584 85.312H30.938v41.25H0v81.875h30.938v41.25h85.646l125.604 57.093v-89.017c23.487-4.666 41.25-25.427 41.25-50.264 0-24.837-17.762-45.598-41.25-50.263zm-211.25 71.201H20v-41.875h10.938v41.875zm191.25 87.282-101.271-46.032H50.938V105.312h69.979l101.271-46.033v216.44zm20-78.62v-59.2c12.34 4.181 21.25 15.865 21.25 29.6s-8.91 25.42-21.25 29.6z" fill="#fff"/><path d="m277.19 81.75-7.506 18.538C297.213 111.435 315 137.817 315 167.499s-17.787 56.064-45.315 67.211l7.506 18.538C312.309 239.028 335 205.37 335 167.499c0-37.871-22.691-71.528-57.81-85.749z" fill="#fff"/></svg>