<svg xmlns="http://www.w3.org/2000/svg" viewBox="0 0 21.874 21.874" style="enable-background:new 0 0 21.874 21.874" xml:space="preserve"><path style="fill:#000" d="M20.607 21.874h-3.114a.603.603 0 0 1-.564-.386l-2.262-5.873H6.864l-2.125 5.861a.603.603 0 0 1-.568.398H1.267a.604.604 0 0 1-.564-.821L8.639.387A.602.602 0 0 1 9.203 0h2.947c.245 0 .466.148.559.375l8.458 20.665a.603.603 0 0 1-.56.834zM8.102 12.179h5.261l-1.849-4.906a80.508 80.508 0 0 1-.821-2.262 27.006 27.006 0 0 1-.627 1.919l-1.964 5.249z"/></svg>