<?xml version="1.0" encoding="iso-8859-1"?>
<!-- Generator: Adobe Illustrator 19.0.0, SVG Export Plug-In . SVG Version: 6.00 Build 0)  -->
<svg version="1.1" id="Capa_1" xmlns="http://www.w3.org/2000/svg" xmlns:xlink="http://www.w3.org/1999/xlink" x="0px" y="0px"
	 viewBox="0 0 490.35 490.35" style="enable-background:new 0 0 490.35 490.35;" xml:space="preserve">
<g>
	<path d="M468.675,54.775l-33-33c-28.9-28.9-75.9-28.9-104.8,0l-75.2,75.2c-28.9,28.9-28.9,75.9,0,104.8l1.9,1.9l-53.9,53.9l-2-2
		c-28.9-28.9-75.9-28.9-104.8,0l-75.2,75.2c-28.9,28.9-28.9,75.9,0,104.8l33,33c28.9,28.9,75.9,28.9,104.8,0l75.2-75.2
		c28.9-28.9,28.9-75.9,0-104.8l-1.9-1.9l53.9-53.9l2,2c28.9,28.9,75.9,28.9,104.8,0l75.2-75.2
		C497.575,130.775,497.575,83.675,468.675,54.775z M205.675,317.575c12.9,12.9,12.9,33.9,0,46.9l-75.2,75.2
		c-12.9,12.9-33.9,12.9-46.9,0l-33-33c-12.9-12.9-12.9-33.9,0-46.9l75.2-75.2c12.9-12.9,33.9-12.9,46.9,0l2,2l-32.6,32.6
		c-8.3,8.3-8.3,20.8,0,29.2c4.2,4.2,9.4,6.3,14.6,6.3s10.4-2.1,14.6-6.3l32.6-32.6L205.675,317.575z M439.675,130.675l-75.2,75.2
		c-12.9,12.9-33.9,12.9-46.9,0l-2-2l32.6-32.6c8.3-8.3,8.3-20.8,0-29.2s-20.8-8.3-29.2,0l-32.6,32.6l-1.9-1.9
		c-12.9-12.9-12.9-33.9,0-46.9l75.2-75.2c12.9-12.9,33.9-12.9,46.9,0l33,33C452.675,96.675,452.675,117.675,439.675,130.675z"/>
</g>
<g>
</g>
<g>
</g>
<g>
</g>
<g>
</g>
<g>
</g>
<g>
</g>
<g>
</g>
<g>
</g>
<g>
</g>
<g>
</g>
<g>
</g>
<g>
</g>
<g>
</g>
<g>
</g>
<g>
</g>
</svg>
